<svg fill="none" height="32" viewBox="0 0 32 32" width="32" xmlns="http://www.w3.org/2000/svg"><g fill="#212121"><path d="m28.99 30v-13.02c0-.54-.44-.99-.99-.99h-8v-3.99h2v1.19c0 .45.36.81.8.81h3.39c.45 0 .81-.36.81-.8v-8.39c0-.45-.36-.81-.8-.81h-3.39c-.45 0-.81.36-.81.81v1.19h-2v-3.08c0-.51-.41-.92-.92-.92h-15.16c-.51 0-.92.41-.92.92v27.06h1.97998v-4.95c0-.57.46-1.03 1.03-1.03h10.96002c.57 0 1.03.46 1.03 1.03v4.97h-.99v-4.65c0-.19-.15-.35-.35-.35h-2.28c-.19 0-.35.15-.35.35v4.65h-1.03-2zm-8.99-2.99v-3.01h1.5c.28 0 .5.23.5.5v2c0 .28-.22.5-.5.51zm0-5v-3.01h1.5c.28 0 .5.23.5.5v2c0 .28-.22.5-.5.51zm2-11.01h-2v-4h2zm5 8.5v2c0 .28-.22.5-.5.51h-2.02c-.28 0-.5-.23-.5-.5v-2.01c0-.28.23-.5.5-.5h2.02c.28 0 .5.23.5.5zm0 5v2c0 .28-.22.5-.5.51h-2.02c-.28 0-.5-.23-.5-.5v-2.01c0-.28.23-.5.5-.5h2.02c.28 0 .5.23.5.5zm-13.99-20v2c0 .28-.22.5-.5.5h-2.02c-.28 0-.50001-.23-.50001-.5v-2c0-.28.23001-.5.50001-.5h2.02c.28 0 .5.23.5.5zm0 7c0 .28-.22.5-.5.5h-2.02c-.28 0-.50001-.23-.50001-.5v-2c0-.28.23001-.5.50001-.5h2.02c.28 0 .5.23.5.5zm0 3v2c0 .28-.22.5-.5.51h-2.02c-.28 0-.50001-.23-.50001-.5v-2.01c0-.28.23001-.5.50001-.5h2.02c.28 0 .5.23.5.5zm0 5v2c0 .28-.22.5-.5.51h-2.02c-.28 0-.50001-.23-.50001-.5v-2.01c0-.28.23001-.5.50001-.5h2.02c.28 0 .5.23.5.5zm5.01 2c0 .28-.23.5-.5.51h-2.02c-.28 0-.5-.23-.5-.5v-2.01c0-.28.23-.5.5-.5h2.02c.28 0 .5.23.5.5zm0-7v2c0 .28-.23.5-.5.51h-2.02c-.28 0-.5-.23-.5-.5v-2.01c0-.28.23-.5.5-.5h2.02c.28 0 .5.23.5.5zm0-3c0 .28-.23.5-.5.5h-2.02c-.28 0-.5-.23-.5-.5v-2c0-.28.22-.5.5-.5h2.02c.28 0 .5.23.5.5zm0-7v2c0 .28-.23.5-.5.5h-2.02c-.28 0-.5-.22-.5-.5v-2c0-.28.22-.5.5-.5h2.02c.28 0 .5.23.5.5zm-10.01001 17c0 .28-.22.5-.5.51h-2.02c-.28 0-.5-.23-.5-.5v-2.01c0-.28.23-.5.5-.5h2.02c.28 0 .5.23.5.5zm0-7v2c0 .28-.22.5-.5.51h-2.02c-.28 0-.5-.23-.5-.5v-2.01c0-.28.23-.5.5-.5h2.02c.28 0 .5.23.5.5zm0-3c0 .28-.22.5-.5.5h-2.02c-.28 0-.5-.23-.5-.5v-2c0-.28.23-.5.5-.5h2.02c.28 0 .5.23.5.5zm0-7v2c0 .28-.22.5-.5.5h-2.02c-.28 0-.5-.23-.5-.5v-2c0-.28.23-.5.5-.5h2.02c.28 0 .5.23.5.5z"/><path d="m13 30h-2.98v-4.65c0-.2.16-.35.35-.35h2.28c.19 0 .35.15.35.35z"/><path d="m8.98 25.35v4.65h-2.98v-4.65c0-.2.15-.35.35-.35h2.28c.2 0 .35.16.35.35z"/></g></svg>