<svg viewBox="0 0 1000 1004.1441" xmlns="http://www.w3.org/2000/svg"><path d="m389 415.144 71-245c7-24 41-19 41 5v672c0 13-12 23-25 20l-343-75c-9-2-16-10-16-20v-335c0-12 9-21 21-21h251zm35 27c-2 9-11 15-20 15h-245v298l301 65v-499zm28-243-299 33-62 183h297zm-48 258h-342c-14 0-24-14-19-27l76-224c2-8 9-14 17-14l343-37c14-2 26 12 22 26l-76 261c-3 9-12 15-21 15zm429-42c12 0 21 10 21 21v200c0 12-9 21-21 21s-21-9-21-21v-179h-256c-9 0-17-6-20-15l-35-121v499l130-28c11-2 22 5 24 16 3 11-4 22-15 24l-156 34c-13 3-25-7-25-20v-671c0-24 34-29 41-5l71 245zm-277 42c-9 0-17-6-20-15l-76-261c-4-14 8-28 22-26l343 37c8 0 15 6 18 14l76 224c4 13-6 27-20 27zm16-42h298l-63-183-298-33zm169 460h127l45-147h-216zm184-188c18 0 33 15 33 33 0 3 0 7-2 10l-51 164c-4 14-17 23-31 23h-139c-15 0-27-9-32-24l-54-179v-1c-4-11-9-22-16-32-5-7-10-10-17-10-11 0-21-9-21-21s10-20 21-20c21 0 39 9 51 27 7 10 12 20 16 30zm-174 301c-16 0-29-13-29-30s13-29 29-29 29 13 29 29-13 30-29 30zm104 0c-16 0-29-13-29-30s13-29 29-29 29 13 29 29-13 30-29 30z"/></svg>